<?xml version="1.0" encoding="utf-8"?>
<svg width="512px" height="512px" viewBox="0 0 512 512" version="1.1" xmlns:xlink="http://www.w3.org/1999/xlink" xmlns="http://www.w3.org/2000/svg">
  <defs>
    <path d="M512 0L512 0L512 512L0 512L0 0L512 0Z" id="path_1" />
    <clipPath id="clip_1">
      <use xlink:href="#path_1" clip-rule="evenodd" fill-rule="evenodd" />
    </clipPath>
  </defs>
  <g id="d10">
    <path d="M512 0L512 0L512 512L0 512L0 0L512 0Z" id="d10" fill="none" stroke="none" />
    <path d="M45.2784 216.197L262.285 30.1159L152.547 264.591L47.5224 301.401L45.2784 216.197Z" id="rect2" fill="#FFFFFF" stroke="#000000" stroke-width="4" clip-path="url(#clip_1)" />
    <path d="M45.2784 216.197L262.285 30.1159L152.547 264.591L47.5224 301.401L45.2784 216.197Z" id="rect2" fill="#FFFFFF" stroke="#000000" stroke-width="4" clip-path="url(#clip_1)" />
    <path d="M471.545 215.874L259.974 29.761L370 276L469.27 301.071L471.545 215.874Z" id="rect2-5" fill="#FFFFFF" stroke="#000000" stroke-width="4" clip-path="url(#clip_1)" />
    <path d="M471.545 215.874L259.974 29.761L370 276L469.27 301.071L471.545 215.874Z" id="rect2-5" fill="#FFFFFF" stroke="#000000" stroke-width="4" clip-path="url(#clip_1)" />
    <path d="M466.168 304.601L370 275.5L258.959 320.251L258.542 486.575L466.168 304.601Z" id="rect3-3" fill="#FFFFFF" stroke="#000000" stroke-width="5" clip-path="url(#clip_1)" />
    <path d="M466.168 304.601L370 275.5L258.959 320.251L258.542 486.575L466.168 304.601Z" id="rect3-3" fill="#FFFFFF" stroke="#000000" stroke-width="5" clip-path="url(#clip_1)" />
    <path d="M50.292 305.045L151.535 265.993L254.965 320.582L253.948 486.558L50.292 305.045Z" id="rect3" fill="#FFFFFF" stroke="#000000" stroke-width="5" clip-path="url(#clip_1)" />
    <path d="M50.292 305.045L151.535 265.993L254.965 320.582L253.948 486.558L50.292 305.045Z" id="rect3" fill="#FFFFFF" stroke="#000000" stroke-width="5" clip-path="url(#clip_1)" />
    <path d="M261.939 37.3012L369.691 276.028L255.957 319.979L153.123 264.537L261.939 37.3012Z" id="rect1" fill="#FFFFFF" stroke="#000000" stroke-width="6.5" clip-path="url(#clip_1)" />
    <path d="M261.939 37.3012L369.691 276.028L255.957 319.979L153.123 264.537L261.939 37.3012Z" id="rect1" fill="#FFFFFF" stroke="#000000" stroke-width="6.5" clip-path="url(#clip_1)" />
  </g>
</svg>