<?xml version="1.0" encoding="UTF-8" standalone="no"?>
<!-- Created with Inkscape (http://www.inkscape.org/) -->

<svg
   version="1.1"
   id="svg1"
   width="512"
   height="512"
   viewBox="0 0 512 512"
   sodipodi:docname="d12.svg"
   inkscape:export-filename="d12.png"
   inkscape:export-xdpi="96"
   inkscape:export-ydpi="96"
   inkscape:version="1.3.2 (091e20ef0f, 2023-11-25, custom)"
   xmlns:inkscape="http://www.inkscape.org/namespaces/inkscape"
   xmlns:sodipodi="http://sodipodi.sourceforge.net/DTD/sodipodi-0.dtd"
   xmlns="http://www.w3.org/2000/svg"
   xmlns:svg="http://www.w3.org/2000/svg">
  <defs
     id="defs1" />
  <sodipodi:namedview
     id="namedview1"
     pagecolor="#ffffff"
     bordercolor="#111111"
     borderopacity="1"
     inkscape:showpageshadow="0"
     inkscape:pageopacity="0"
     inkscape:pagecheckerboard="1"
     inkscape:deskcolor="#d1d1d1"
     inkscape:zoom="1.1020922"
     inkscape:cx="144.27105"
     inkscape:cy="235.00756"
     inkscape:window-width="1920"
     inkscape:window-height="1011"
     inkscape:window-x="0"
     inkscape:window-y="0"
     inkscape:window-maximized="1"
     inkscape:current-layer="g1" />
  <g
     inkscape:groupmode="layer"
     inkscape:label="Image"
     id="g1">
    <path
       sodipodi:type="star"
       style="fill:#ffffff;stroke:#000000;stroke-width:4.0252"
       id="path3"
       inkscape:flatsided="true"
       sodipodi:sides="10"
       sodipodi:cx="236.82407"
       sodipodi:cy="247.29774"
       sodipodi:r1="189.48638"
       sodipodi:r2="175.39131"
       sodipodi:arg1="1.5743581"
       sodipodi:arg2="1.8885174"
       inkscape:rounded="-0.0052361294"
       inkscape:randomized="0"
       d="m 236.14916,436.78292 c 0.61319,0.002 -111.74249,-36.94734 -111.24769,-36.58515 0.4948,0.36219 -68.684479,-95.57162 -68.497069,-94.98776 0.18741,0.58386 0.60868,-117.69078 0.417115,-117.10828 -0.191565,0.58251 69.669344,-94.856069 69.171974,-94.497409 -0.49737,0.358659 112.11868,-35.789564 111.50548,-35.791748 -0.61319,-0.0022 111.7425,36.947341 111.2477,36.585147 -0.4948,-0.362193 68.68447,95.57162 68.49706,94.98776 -0.18741,-0.58386 -0.60868,117.69078 -0.41711,117.10828 0.19156,-0.58251 -69.66934,94.85607 -69.17197,94.49741 0.49736,-0.35866 -112.11868,35.78956 -111.50549,35.79175 z"
       transform="matrix(1.1399998,0,0,1.1399998,-13.095513,-30.22304)" />
    <path
       sodipodi:type="star"
       style="fill:#ffffff;stroke:#000000;stroke-width:4.0252"
       id="path4"
       inkscape:flatsided="true"
       sodipodi:sides="5"
       sodipodi:cx="146.62657"
       sodipodi:cy="97.704262"
       sodipodi:r1="153.90997"
       sodipodi:r2="113.5172"
       sodipodi:arg1="2.2060576"
       sodipodi:arg2="2.8343762"
       inkscape:rounded="-0.0052361294"
       inkscape:randomized="0"
       d="M 55.298265,221.58897 C 56.06083,222.15113 0.8822223,48.229399 0.58321628,49.12836 0.28421027,50.027322 148.64248,-56.195425 147.69512,-56.202002 c -0.94736,-0.0066 145.9217,108.265889 145.63521,107.362863 -0.2865,-0.903026 -57.8747,172.235789 -57.1044,171.684259 0.7703,-0.55152 -181.690229,-1.81832 -180.927665,-1.25615 z"
       inkscape:transform-center-x="7.4393886"
       inkscape:transform-center-y="-6.1242586"
       transform="translate(109.12281,152.24561)" />
    <path
       style="fill:#ffffff;stroke:#000000;stroke-width:4.0252"
       d="m 164.6203,373.10526 -35.01002,52.07143"
       id="path5" />
    <path
       style="fill:#ffffff;stroke:#000000;stroke-width:4.0252"
       d="m 344.60401,374.72556 37.54386,50.82707"
       id="path6" />
    <path
       style="fill:#ffffff;stroke:#000000;stroke-width:4.0252"
       d="m 401.41228,202.4386 60.97744,-17.06141"
       id="path7" />
    <path
       style="fill:#ffffff;stroke:#000000;stroke-width:4.0252"
       d="M 110.2807,201.09023 51.601504,184.23684"
       id="path8" />
    <path
       style="fill:#ffffff;stroke:#000000;stroke-width:4.0252"
       d="m 256.45238,96.31579 1.08396,-61.04386"
       id="path9" />
  </g>
</svg>
